<svg width="13" height="23" viewBox="0 0 13 23" fill="none" xmlns="http://www.w3.org/2000/svg">
<path d="M10.016 21.7377L0.537908 12.2877C0.425408 12.1752 0.345533 12.0533 0.298283 11.9221C0.251033 11.7908 0.227783 11.6502 0.228533 11.5002C0.228533 11.3502 0.251783 11.2096 0.298283 11.0783C0.344783 10.9471 0.424658 10.8252 0.537908 10.7127L10.016 1.23457C10.2785 0.97207 10.6067 0.84082 11.0004 0.84082C11.3942 0.84082 11.7317 0.981445 12.0129 1.2627C12.2942 1.54395 12.4348 1.87207 12.4348 2.24707C12.4348 2.62207 12.2942 2.9502 12.0129 3.23145L3.74416 11.5002L12.0129 19.7689C12.2754 20.0314 12.4067 20.3551 12.4067 20.7398C12.4067 21.1246 12.266 21.4572 11.9848 21.7377C11.7035 22.0189 11.3754 22.1596 11.0004 22.1596C10.6254 22.1596 10.2973 22.0189 10.016 21.7377Z" fill="#111213"/>
</svg>
