<svg width="40" height="40" viewBox="0 0 40 40" fill="none" xmlns="http://www.w3.org/2000/svg">
<path d="M33.3375 5H6.6625C6.22259 5.00327 5.80162 5.17948 5.49055 5.49055C5.17948 5.80162 5.00327 6.22259 5 6.6625V33.3375C5.00327 33.7774 5.17948 34.1984 5.49055 34.5094C5.80162 34.8205 6.22259 34.9967 6.6625 35H21.025V23.4H17.125V18.8625H21.025V15.525C21.025 11.65 23.3875 9.5375 26.8625 9.5375C28.025 9.5375 29.1875 9.5375 30.35 9.7125V13.75H27.9625C26.075 13.75 25.7125 14.65 25.7125 15.9625V18.85H30.2125L29.625 23.3875H25.7125V35H33.3375C33.7774 34.9967 34.1984 34.8205 34.5094 34.5094C34.8205 34.1984 34.9967 33.7774 35 33.3375V6.6625C34.9967 6.22259 34.8205 5.80162 34.5094 5.49055C34.1984 5.17948 33.7774 5.00327 33.3375 5Z" fill="#111213"/>
</svg>
