<svg width="28" height="26" viewBox="0 0 28 26" fill="none" xmlns="http://www.w3.org/2000/svg">
<path d="M13.8802 24.6037L14.3124 25.493C14.1787 25.566 14.0306 25.604 13.8802 25.604C13.7298 25.604 13.5816 25.566 13.448 25.493L13.4442 25.4903L13.4354 25.4863L13.4039 25.469C11.0586 24.1211 8.84933 22.5235 6.81049 20.701C3.54843 17.7637 0.0205078 13.4423 0.0205078 8.35167V8.35034C0.0205078 3.73701 3.58497 0.333008 7.2477 0.333008C10.1381 0.333008 12.4703 1.96767 13.8802 4.47301C15.2914 1.96767 17.6223 0.333008 20.5127 0.333008C24.1742 0.333008 27.7399 3.73567 27.7399 8.35167C27.7399 13.4423 24.2107 17.765 20.9499 20.701C18.911 22.5234 16.7018 24.121 14.3565 25.469L14.325 25.4863L14.3161 25.4903L14.3136 25.4917L13.8802 24.6037ZM7.2477 2.33301C4.62822 2.33301 1.91046 4.83967 1.91046 8.35167C1.91046 12.4943 4.83864 16.2983 8.03518 19.1783C9.82331 20.777 11.7495 22.1944 13.7882 23.4117L13.8802 23.4663L13.9722 23.413C14.3136 23.209 14.805 22.9063 15.3959 22.5143C16.5803 21.7303 18.1553 20.593 19.7252 19.1783C22.9217 16.2983 25.8499 12.4943 25.8499 8.35167C25.8499 4.83967 23.1322 2.33301 20.5127 2.33301C17.8592 2.33301 15.7235 4.18501 14.776 7.19034C14.7124 7.38832 14.5918 7.56025 14.4311 7.68201C14.2705 7.80377 14.0778 7.86924 13.8802 7.86924C13.6826 7.86924 13.4899 7.80377 13.3293 7.68201C13.1686 7.56025 13.048 7.38832 12.9844 7.19034C12.0369 4.18501 9.89994 2.33301 7.2477 2.33301Z" fill="#111213"/>
</svg>
