<svg width="28" height="26" viewBox="0 0 28 26" fill="none" xmlns="http://www.w3.org/2000/svg">
<path d="M13.8597 24.2707L14.2919 25.16C14.1582 25.233 14.01 25.271 13.8597 25.271C13.7093 25.271 13.5611 25.233 13.4275 25.16L13.4237 25.1573L13.4149 25.1533L13.3834 25.136C11.0381 23.7881 8.82882 22.1905 6.78999 20.368C3.52792 17.4307 0 13.1093 0 8.01867V8.01733C0 3.404 3.56446 0 7.2272 0C10.1176 0 12.4498 1.63467 13.8597 4.14C15.2709 1.63467 17.6018 0 20.4922 0C24.1536 0 27.7194 3.40267 27.7194 8.01867C27.7194 13.1093 24.1902 17.432 20.9294 20.368C18.8905 22.1904 16.6812 23.788 14.336 25.136L14.3045 25.1533L14.2956 25.1573L14.2931 25.1587L13.8597 24.2707Z" fill="#D6001C"/>
</svg>
