<svg width="40" height="40" viewBox="0 0 40 40" fill="none" xmlns="http://www.w3.org/2000/svg">
<path d="M28.007 13.7924C29.0011 13.7924 29.807 12.9865 29.807 11.9924C29.807 10.9983 29.0011 10.1924 28.007 10.1924C27.0129 10.1924 26.207 10.9983 26.207 11.9924C26.207 12.9865 27.0129 13.7924 28.007 13.7924Z" fill="#111213"/>
<path d="M20.0004 12.2979C18.4769 12.2979 16.9877 12.7496 15.7211 13.596C14.4544 14.4423 13.4672 15.6453 12.8842 17.0527C12.3012 18.4602 12.1487 20.0089 12.4459 21.503C12.7431 22.9972 13.4767 24.3696 14.5539 25.4468C15.6311 26.5241 17.0035 27.2576 18.4977 27.5548C19.9918 27.8521 21.5405 27.6995 22.948 27.1165C24.3554 26.5335 25.5584 25.5463 26.4047 24.2796C27.2511 23.013 27.7029 21.5238 27.7029 20.0004C27.7029 17.9575 26.8913 15.9984 25.4468 14.5539C24.0023 13.1094 22.0432 12.2979 20.0004 12.2979ZM20.0004 25.0004C19.0114 25.0004 18.0448 24.7071 17.2225 24.1577C16.4003 23.6083 15.7594 22.8274 15.381 21.9138C15.0025 21.0001 14.9035 19.9948 15.0964 19.0249C15.2894 18.055 15.7656 17.1641 16.4648 16.4648C17.1641 15.7656 18.055 15.2894 19.0249 15.0964C19.9948 14.9035 21.0001 15.0025 21.9138 15.381C22.8274 15.7594 23.6083 16.4003 24.1577 17.2225C24.7071 18.0447 25.0004 19.0114 25.0004 20.0004C25.0004 21.3264 24.4736 22.5982 23.5359 23.5359C22.5982 24.4736 21.3264 25.0004 20.0004 25.0004Z" fill="#111213"/>
<path d="M20 7.7025C24.005 7.7025 24.48 7.7175 26.0613 7.79C27.0123 7.80129 27.9543 7.97591 28.8462 8.30625C29.4933 8.55587 30.081 8.93818 30.5714 9.4286C31.0618 9.91902 31.4441 10.5067 31.6937 11.1538C32.0241 12.0457 32.1987 12.9877 32.21 13.9388C32.2825 15.52 32.2975 15.995 32.2975 20.0012C32.2975 24.0075 32.2825 24.48 32.21 26.0613C32.1987 27.0123 32.0241 27.9543 31.6937 28.8462C31.4441 29.4933 31.0618 30.081 30.5714 30.5714C30.081 31.0618 29.4933 31.4441 28.8462 31.6937C27.9543 32.0241 27.0123 32.1987 26.0613 32.21C24.48 32.2825 24.005 32.2975 20 32.2975C15.995 32.2975 15.52 32.2825 13.9388 32.21C12.9877 32.1987 12.0457 32.0241 11.1538 31.6937C10.5067 31.4441 9.91902 31.0618 9.4286 30.5714C8.93818 30.081 8.55587 29.4933 8.30625 28.8462C7.97591 27.9543 7.80129 27.0123 7.79 26.0613C7.7175 24.48 7.7025 24.005 7.7025 20C7.7025 15.995 7.7175 15.52 7.79 13.9388C7.80129 12.9877 7.97591 12.0457 8.30625 11.1538C8.55587 10.5067 8.93818 9.91902 9.4286 9.4286C9.91902 8.93818 10.5067 8.55587 11.1538 8.30625C12.0457 7.97591 12.9877 7.80129 13.9388 7.79C15.52 7.7175 15.995 7.7025 20 7.7025ZM20 5C15.9262 5 15.415 5.0175 13.815 5.09C12.571 5.11512 11.3402 5.35096 10.175 5.7875C9.1784 6.17287 8.27332 6.76222 7.51777 7.51777C6.76222 8.27332 6.17287 9.1784 5.7875 10.175C5.35082 11.3406 5.11498 12.5718 5.09 13.8163C5.0175 15.4163 5 15.925 5 20C5 24.075 5.0175 24.585 5.09 26.185C5.11512 27.429 5.35096 28.6598 5.7875 29.825C6.17287 30.8216 6.76222 31.7267 7.51777 32.4822C8.27332 33.2378 9.1784 33.8271 10.175 34.2125C11.3406 34.6492 12.5718 34.885 13.8163 34.91C15.4163 34.9825 15.9262 35 20 35C24.0737 35 24.585 34.9825 26.185 34.91C27.4295 34.885 28.6607 34.6492 29.8263 34.2125C30.8228 33.8271 31.7279 33.2378 32.4835 32.4822C33.239 31.7267 33.8284 30.8216 34.2138 29.825C34.65 28.6593 34.8854 27.4281 34.91 26.1838C34.9825 24.5837 35 24.075 35 20C35 15.925 34.9825 15.415 34.91 13.815C34.8849 12.571 34.649 11.3402 34.2125 10.175C33.8271 9.1784 33.2378 8.27332 32.4822 7.51777C31.7267 6.76222 30.8216 6.17287 29.825 5.7875C28.6593 5.35125 27.4281 5.11583 26.1838 5.09125C24.5837 5.01625 24.075 5 20 5Z" fill="#111213"/>
</svg>
