<svg width="138" height="22" viewBox="0 0 138 22" fill="none" xmlns="http://www.w3.org/2000/svg">
<path fill-rule="evenodd" clip-rule="evenodd" d="M93.0425 20.6803H96.124V3.15079H93.0425V20.6803ZM80.5556 19.4346V12.0967H88.6733V10.8284H80.5556V4.41908H89.5241V3.15079H77.4741V20.6803H89.5701V19.412L80.5556 19.4346ZM106.38 19.4346H103.437V4.41908H106.38C111.946 4.41908 113.164 8.31452 113.164 11.9381C113.188 15.8563 111.715 19.4346 106.38 19.4346ZM106.518 3.15079H100.378V20.6803H106.564C115.579 20.6803 116.292 13.5235 116.292 11.9155C116.292 9.80929 115.257 3.15079 106.518 3.15079ZM128.111 19.8423C121.926 19.8423 121.327 14.4068 121.327 11.9155C121.327 9.5828 121.856 3.98877 128.088 3.98877C134.275 3.98877 134.872 9.42427 134.872 11.9155C134.896 14.2483 134.344 19.8423 128.111 19.8423ZM128.111 2.90166C122.202 2.90166 118.223 6.8424 118.223 11.9155C118.223 16.9887 122.202 20.9294 128.111 20.9294C134.021 20.9294 138 16.9887 138 11.9155C138 6.8424 133.999 2.90166 128.111 2.90166ZM33.7354 1.15777C33.7354 1.15777 31.7117 -0.0652141 28.3313 0.00272967C24.238 0.0933215 20.7656 2.69783 18.9488 5.34764C17.73 7.13683 16.7412 9.10719 16.0513 11.1682C15.5684 12.4591 14.7636 14.3162 14.1427 15.6977C12.8088 18.5514 10.5552 20.952 6.99084 20.7708C3.38044 20.5444 0.804866 18.0078 0.804866 18.0078L0 18.8231C2.04666 20.7708 4.76021 21.9033 7.58873 21.9938C11.1532 22.1298 15.2694 20.0009 17.1552 16.8981C18.098 15.3581 18.8569 13.7274 19.4317 12.0288C19.5309 11.7143 19.626 11.4099 19.7182 11.1148C20.3967 8.94404 20.9189 7.27324 21.7084 5.77796C22.5822 4.12465 24.9969 1.15777 28.8602 1.11248C30.401 1.06718 31.9186 1.4069 33.2754 2.06369L33.7354 1.15777ZM50.2006 20.6803H53.2821V3.15079H50.2006V20.6803ZM42.8879 10.9643H33.2525V3.15079H30.171V20.6803H33.2525V12.1874H42.8879V20.6803H45.9693V3.15079H42.8879V10.9643ZM66.7349 6.95564C65.861 8.38246 65.1021 9.89987 64.5043 11.4852C63.9754 12.9347 63.0095 15.5165 62.6415 16.3545C61.4687 18.9817 60.4799 20.1367 58.1343 20.0462C56.6626 20.0009 55.0989 18.8458 55.0989 18.8458L54.5699 19.6158C55.7427 20.5671 57.2145 21.088 58.7323 21.088C61.3997 21.1332 63.3314 19.797 64.6882 17.9173C65.6541 16.5811 66.5509 14.5201 67.3327 12.4591C67.5937 11.7816 67.8438 11.0479 68.0952 10.3103C68.5747 8.90302 69.0591 7.48204 69.6324 6.4121C70.5063 4.78144 71.8861 3.78493 73.5188 3.78493C74.2546 3.78493 74.9905 3.94346 75.6573 4.26054L76.0484 3.39992C75.1745 3.0149 74.2316 2.81108 73.2657 2.78842C70.0693 2.87902 68.0226 4.84938 66.7349 6.95564Z" fill="#A70319"/>
</svg>
