<svg width="21" height="21" viewBox="0 0 21 21" fill="none" xmlns="http://www.w3.org/2000/svg">
<path fill-rule="evenodd" clip-rule="evenodd" d="M2.12496 8.3851C2.12496 4.93332 4.92318 2.1351 8.37496 2.1351C11.8268 2.1351 14.625 4.93332 14.625 8.3851C14.625 11.8369 11.8268 14.6351 8.37496 14.6351C4.92318 14.6351 2.12496 11.8369 2.12496 8.3851ZM8.37496 0.0517578C3.77259 0.0517578 0.041626 3.78272 0.041626 8.3851C0.041626 12.9874 3.77259 16.7184 8.37496 16.7184C10.3432 16.7184 12.152 16.0361 13.5779 14.8951L19.1068 20.4287C19.5134 20.8356 20.173 20.8359 20.5799 20.4293C20.9869 20.0227 20.9871 19.3631 20.5805 18.9562L15.0303 13.4011C16.0836 12.0056 16.7083 10.2683 16.7083 8.3851C16.7083 3.78272 12.9774 0.0517578 8.37496 0.0517578Z" fill="#111213"/>
</svg>
