<svg width="17" height="22" viewBox="0 0 17 22" fill="none" xmlns="http://www.w3.org/2000/svg">
<path fill-rule="evenodd" clip-rule="evenodd" d="M6.94726 2.75032C7.36393 2.33366 7.88476 2.12532 8.40559 2.12532C8.92644 2.12532 9.44731 2.33366 9.86394 2.75032C10.2806 3.167 10.4889 3.68782 10.4889 4.20866V5.25032H6.32226V4.20866C6.32226 3.68782 6.53059 3.167 6.94726 2.75032ZM4.23893 7.33366V8.68782C4.23893 9.31282 4.75976 9.7295 5.28059 9.7295C5.90559 9.7295 6.32226 9.20866 6.32226 8.68782V7.33366H10.4889V8.58366C10.4889 9.20866 11.0098 9.62532 11.5306 9.62532C12.0514 9.62532 12.5723 9.1045 12.5723 8.58366V7.33366H13.1973L14.5514 19.8336H2.25976L3.61393 7.33366H4.23893ZM4.23893 5.25032V4.20866C4.23893 3.06282 4.65559 2.02116 5.48893 1.292C6.21809 0.45866 7.25976 0.0419922 8.40559 0.0419922C9.55144 0.0419922 10.5931 0.45866 11.3223 1.292C12.1556 2.02116 12.5723 3.06282 12.5723 4.20866V5.25032H13.6139C14.4473 5.25032 15.0723 5.87532 15.1764 6.6045L16.6348 20.1461C16.7389 21.0836 16.0098 21.917 15.0723 21.917H1.73893C0.801427 21.917 0.0722646 21.0836 0.176427 20.1461L1.63476 6.6045C1.63476 5.87532 2.36393 5.25032 3.09309 5.25032H4.23893Z" fill="#111213"/>
</svg>
