<svg width="17" height="17" viewBox="0 0 20 20" fill="none" xmlns="http://www.w3.org/2000/svg">
<path d="M19.8941 7.20072C19.7666 6.83652 19.426 6.58552 19.0345 6.56718H12.8808L10.9272 0.634939C10.7881 0.237224 10.3972 -0.0214388 9.96991 0.0013993C9.5516 -0.00155371 9.17978 0.262772 9.05173 0.654137L7.09815 6.58638H0.963895C0.551848 6.58359 0.184224 6.84025 0.0512641 7.22352C-0.0816958 7.6068 0.0498466 8.03068 0.37782 8.27582L5.35946 11.9811L3.40587 17.9517C3.26787 18.3437 3.40738 18.7782 3.7493 19.0214C4.09122 19.2645 4.55486 19.2589 4.8906 19.0076L10.1067 15.168L15.3423 19.0076C15.5053 19.1295 15.7039 19.1968 15.9088 19.1996C16.2207 19.2039 16.5152 19.0586 16.698 18.8102C16.8807 18.5618 16.9289 18.2414 16.827 17.9517L14.8734 11.9811L19.7574 8.25662C20.0207 7.96627 20.075 7.54662 19.8941 7.20072Z" fill="url(#paint0_linear_284_1162)"/>
<defs>
<linearGradient id="paint0_linear_284_1162" x1="1999.8" y1="0" x2="2000" y2="0" gradientUnits="userSpaceOnUse">
<stop/>
<stop offset="0.01" stop-color="#F6F6F6"/>
</linearGradient>
</defs>
</svg>
