<svg width="40" height="40" viewBox="0 0 40 40" fill="none" xmlns="http://www.w3.org/2000/svg">
<path d="M36.7625 11.575C36.5633 10.8351 36.1733 10.1604 35.6314 9.61854C35.0896 9.0767 34.4149 8.68667 33.675 8.4875C30.95 7.75 20 7.75 20 7.75C20 7.75 9.04996 7.75 6.32496 8.4875C5.58501 8.68667 4.91035 9.0767 4.36851 9.61854C3.82666 10.1604 3.43663 10.8351 3.23746 11.575C2.72865 14.3541 2.48173 17.1748 2.49996 20C2.48173 22.8252 2.72865 25.6459 3.23746 28.425C3.43663 29.1649 3.82666 29.8396 4.36851 30.3815C4.91035 30.9233 5.58501 31.3133 6.32496 31.5125C9.04996 32.25 20 32.25 20 32.25C20 32.25 30.95 32.25 33.675 31.5125C34.4149 31.3133 35.0896 30.9233 35.6314 30.3815C36.1733 29.8396 36.5633 29.1649 36.7625 28.425C37.2713 25.6459 37.5182 22.8252 37.5 20C37.5182 17.1748 37.2713 14.3541 36.7625 11.575ZM16.5 25.25V14.75L25.5875 20L16.5 25.25Z" fill="#111213"/>
</svg>
